<svg width="80" height="81" viewBox="0 0 80 81" fill="none" xmlns="http://www.w3.org/2000/svg">
<g clip-path="url(#clip0_1741_55)">
<g clip-path="url(#clip1_1741_55)">
<mask id="mask0_1741_55" style="mask-type:luminance" maskUnits="userSpaceOnUse" x="0" y="0" width="80" height="81">
<path d="M80 0.949951H0V80.95H80V0.949951Z" fill="white"/>
</mask>
<g mask="url(#mask0_1741_55)">
<path d="M66 12.95H12V81.95H66V12.95Z" fill="url(#paint0_linear_1741_55)"/>
<path d="M37.0484 13.4625L38.0155 11.7875L38.4485 12.0375L38.499 11.95L38.5495 12.0375L38.9825 11.7875L39.9496 13.4625L39.5166 13.7125L40.4836 15.3875L40.9166 15.1375L41.8837 16.8125L41.4507 17.0625L42.4178 18.7375L42.8508 18.4875L43.8178 20.1625L43.3848 20.4125L44.3519 22.0875L44.7849 21.8375L45.752 23.5125L45.3189 23.7625L46.286 25.4375L46.719 25.1875L47.6861 26.8625L47.2531 27.1125L48.2201 28.7875L48.6531 28.5375L49.6202 30.2125L49.1872 30.4625L50.1543 32.1375L50.5873 31.8875L51.5543 33.5625L51.1213 33.8125L52.0884 35.4875L52.5214 35.2375L53.4885 36.9125L53.0554 37.1625L54.0225 38.8375L54.4555 38.5875L55.4226 40.2625L54.9896 40.5125L55.9566 42.1875L56.3896 41.9375L57.3567 43.6125L56.9237 43.8625L57.8908 45.5375L58.3238 45.2875L59.2908 46.9625L58.8578 47.2125L59.8249 48.8875L60.2579 48.6375L61.2249 50.3125L60.7919 50.5625L61.759 52.2375L62.192 51.9875L63.1591 53.6625L62.7261 53.9125L63.6931 55.5875L64.1261 55.3375L65.0932 57.0125L64.6602 57.2625L65.6272 58.9375L66.0603 58.6875L67.0273 60.3625L66.5943 60.6125L66.6448 60.7H66.5438V61.2H64.6097V60.7H62.6756V61.2H60.7414V60.7H58.8073V61.2H56.8732V60.7H54.9391V61.2H53.0049V60.7H51.0708V61.2H49.1367V60.7H47.2026V61.2H45.2684V60.7H43.3343V61.2H41.4002V60.7H39.4661V61.2H37.5319V60.7H35.5978V61.2H33.6637V60.7H31.7296V61.2H29.7954V60.7H27.8613V61.2H25.9272V60.7H23.9931V61.2H22.0589V60.7H20.1248V61.2H18.1907V60.7H16.2566V61.2H14.3225V60.7H12.3883V61.2H10.4542V60.7H10.3532L10.4037 60.6125L9.9707 60.3625L10.9377 58.6875L11.3707 58.9375L12.3378 57.2625L11.9048 57.0125L12.8719 55.3375L13.3049 55.5875L14.2719 53.9125L13.8389 53.6625L14.806 51.9875L15.239 52.2375L16.2061 50.5625L15.773 50.3125L16.7401 48.6375L17.1731 48.8875L18.1402 47.2125L17.7072 46.9625L18.6742 45.2875L19.1072 45.5375L20.0743 43.8625L19.6413 43.6125L20.6084 41.9375L21.0414 42.1875L22.0084 40.5125L21.5754 40.2625L22.5425 38.5875L22.9755 38.8375L23.9426 37.1625L23.5095 36.9125L24.4766 35.2375L24.9096 35.4875L25.8767 33.8125L25.4437 33.5625L26.4107 31.8875L26.8437 32.1375L27.8108 30.4625L27.3778 30.2125L28.3449 28.5375L28.7779 28.7875L29.7449 27.1125L29.3119 26.8625L30.279 25.1875L30.712 25.4375L31.679 23.7625L31.246 23.5125L32.2131 21.8375L32.6461 22.0875L33.6132 20.4125L33.1802 20.1625L34.1472 18.4875L34.5802 18.7375L35.5473 17.0625L35.1143 16.8125L36.0813 15.1375L36.5144 15.3875L37.4814 13.7125L37.0484 13.4625Z" stroke="#1D1D1D" stroke-dasharray="2 2"/>
<path d="M10.3535 70.7L38.4993 21.95L66.6451 70.7H10.3535Z" stroke="#1D1D1D"/>
<path d="M10.3535 50.7L38.4993 1.94995L66.6451 50.7H10.3535Z" stroke="#1D1D1D"/>
</g>
</g>
</g>
<defs>
<linearGradient id="paint0_linear_1741_55" x1="39" y1="12.95" x2="39" y2="81.95" gradientUnits="userSpaceOnUse">
<stop stop-color="#F1FBFF"/>
<stop offset="1" stop-color="#7F3E98"/>
</linearGradient>
<clipPath id="clip0_1741_55">
<rect width="80" height="80" fill="white" transform="translate(0 0.949951)"/>
</clipPath>
<clipPath id="clip1_1741_55">
<rect width="80" height="80" fill="white" transform="translate(0 0.949951)"/>
</clipPath>
</defs>
</svg>
