<svg width="24" height="24" viewBox="0 0 24 24" fill="none" xmlns="http://www.w3.org/2000/svg">
    <path d="M21 12C21 14.3869 20.0518 16.6761 18.364 18.364C16.6761 20.0518 14.3869 21 12 21C9.61305 21 7.32387 20.0518 5.63604 18.364C3.94821 16.6761 3 14.3869 3 12C3 9.61305 3.94821 7.32387 5.63604 5.63604C7.32387 3.94821 9.61305 3 12 3C14.3869 3 16.6761 3.94821 18.364 5.63604C20.0518 7.32387 21 9.61305 21 12ZM12 6.9375C12 6.78832 11.9407 6.64524 11.8352 6.53975C11.7298 6.43426 11.5867 6.375 11.4375 6.375C11.2883 6.375 11.1452 6.43426 11.0398 6.53975C10.9343 6.64524 10.875 6.78832 10.875 6.9375V13.125C10.875 13.2241 10.9013 13.3215 10.9511 13.4073C11.0008 13.493 11.0724 13.5641 11.1585 13.6132L15.096 15.8632C15.2252 15.9331 15.3766 15.9496 15.5179 15.9093C15.6591 15.869 15.779 15.775 15.8518 15.6475C15.9247 15.5199 15.9448 15.369 15.9078 15.2268C15.8709 15.0847 15.7798 14.9626 15.654 14.8868L12 12.7987V6.9375Z" fill="#7D3EF2"/>
</svg>